<?xml version="1.0" encoding="UTF-8" standalone="no" ?>
<!DOCTYPE svg PUBLIC "-//W3C//DTD SVG 1.1//EN" "http://www.w3.org/Graphics/SVG/1.1/DTD/svg11.dtd">
<svg xmlns="http://www.w3.org/2000/svg" xmlns:xlink="http://www.w3.org/1999/xlink" version="1.1" width="1280" height="1024" viewBox="0 0 1280 1024" xml:space="preserve">
<desc>Created with Fabric.js 5.3.0</desc>
<defs>
</defs>
<g transform="matrix(1 0 0 1 640 512)" id="background-logo"  >
<rect style="stroke: none; stroke-width: 0; stroke-dasharray: none; stroke-linecap: butt; stroke-dashoffset: 0; stroke-linejoin: miter; stroke-miterlimit: 4; fill: rgb(23,23,23); fill-rule: nonzero; opacity: 1;"  paint-order="stroke"  x="-640" y="-512" rx="0" ry="0" width="1280" height="1024" />
</g>
<g transform="matrix(1.9211538461538462 0 0 1.9211538461538462 639.9519711538462 641.4836627109632)" id="text-logo"  >
<g style=""  paint-order="stroke"   >
		<g transform="matrix(1 0 0 1 0 0)" id="text-logo-path-0"  >
<path style="stroke: none; stroke-width: 0.5319148936170208; stroke-dasharray: none; stroke-linecap: butt; stroke-dashoffset: 0; stroke-linejoin: miter; stroke-miterlimit: 4; fill: rgb(156,156,156); fill-rule: nonzero; opacity: 1;"  paint-order="stroke"  transform=" translate(-304.05, 17.5)" d="M 25.5 0 L 36 0 L 36 -35 L 27.5 -35 L 27.5 -10.85 L 13 -35 L 2.5 -35 L 2.5 0 L 11 0 L 11 -24.15 L 25.5 0 Z M 44.15 0 L 72.65 0 L 72.65 -7 L 52.65 -7 L 52.65 -14 L 67.65 -14 L 67.65 -21 L 52.65 -21 L 52.65 -28 L 72.65 -28 L 72.65 -35 L 44.15 -35 L 44.15 0 Z M 94.05 0 L 103.05 0 L 116.3 -35 L 107.8 -35 L 98.55 -10.55 L 89.3 -35 L 80.8 -35 L 94.05 0 Z M 124.45 0 L 152.95 0 L 152.95 -7 L 132.95 -7 L 132.95 -14 L 147.95 -14 L 147.95 -21 L 132.95 -21 L 132.95 -28 L 152.95 -28 L 152.95 -35 L 124.45 -35 L 124.45 0 Z M 161.1 0 L 169.6 0 L 169.6 -11.5 L 175.95 -11.5 L 182.6 0 L 191.6 0 L 184.5 -12.3 C 188.8 -13.8 190.95 -17.5 190.95 -23.35 C 190.95 -31.1 187.05 -35 179.25 -35 L 161.1 -35 L 161.1 0 Z M 169.6 -18.5 L 169.6 -28 L 179.2 -28 C 181.25 -28 182.45 -26.45 182.45 -23.3 C 182.45 -20.1 181.35 -18.5 179.2 -18.5 L 169.6 -18.5 Z M 239.9 0 L 248.4 0 L 235.15 -35 L 226.15 -35 L 212.9 0 L 221.4 0 L 223.85 -6.5 L 237.45 -6.5 L 239.9 0 Z M 226.5 -13.5 L 230.65 -24.45 L 234.8 -13.5 L 226.5 -13.5 Z M 256.55 0 L 285.05 0 L 285.05 -7 L 265.05 -7 L 265.05 -35 L 256.55 -35 L 256.55 0 Z M 311.25 0.5 C 323.2 0.5 329.2 -5.3 329.2 -17.55 C 329.2 -29.55 323.6 -35.5 311.25 -35.5 C 299.2 -35.5 293.2 -29.9 293.2 -17.55 C 293.2 -5.5 298.85 0.5 311.25 0.5 Z M 301.7 -17.55 C 301.7 -24.9 304.7 -28.5 311.25 -28.5 C 317.5 -28.5 320.7 -25 320.7 -17.55 C 320.7 -10.15 317.8 -6.5 311.25 -6.5 C 304.85 -6.5 301.7 -9.95 301.7 -17.55 Z M 360.35 0 L 370.85 0 L 370.85 -35 L 362.35 -35 L 362.35 -10.85 L 347.85 -35 L 337.35 -35 L 337.35 0 L 345.85 0 L 345.85 -24.15 L 360.35 0 Z M 379 0 L 407.5 0 L 407.5 -7 L 387.5 -7 L 387.5 -14 L 402.5 -14 L 402.5 -21 L 387.5 -21 L 387.5 -28 L 407.5 -28 L 407.5 -35 L 379 -35 L 379 0 Z M 455.8 0 L 464.3 0 L 451.05 -35 L 442.05 -35 L 428.8 0 L 437.3 0 L 439.75 -6.5 L 453.35 -6.5 L 455.8 0 Z M 442.4 -13.5 L 446.55 -24.45 L 450.7 -13.5 L 442.4 -13.5 Z M 486.5 0.5 C 497.65 0.5 503.35 -3.45 503.6 -11.45 L 503.6 -18.45 L 487.55 -18.45 L 487.55 -11.45 L 495.05 -11.45 C 494.7 -8.15 490.9 -6.5 486.5 -6.5 C 480.05 -6.5 476.95 -9.8 476.95 -17.55 C 476.95 -25 479.85 -28.5 486.5 -28.5 C 491.35 -28.5 495.15 -27 495.15 -23 L 503.65 -23 C 503.05 -31.35 496.5 -35.5 486.5 -35.5 C 474.3 -35.5 468.45 -30 468.45 -17.55 C 468.45 -5.35 473.95 0.5 486.5 0.5 Z M 538.8 0 L 547.3 0 L 534.05 -35 L 525.05 -35 L 511.8 0 L 520.3 0 L 522.75 -6.5 L 536.35 -6.5 L 538.8 0 Z M 525.4 -13.5 L 529.55 -24.45 L 533.7 -13.5 L 525.4 -13.5 Z M 555.45 0 L 563.95 0 L 563.95 -35 L 555.45 -35 L 555.45 0 Z M 595.1 0 L 605.6 0 L 605.6 -35 L 597.1 -35 L 597.1 -10.85 L 582.6 -35 L 572.1 -35 L 572.1 0 L 580.6 0 L 580.6 -24.15 L 595.1 0 Z" stroke-linecap="round" />
</g>
</g>
</g>
<g transform="matrix(1.9211538461538462 0 0 1.9211538461538462 640 425.65954908206027)" id="tagline-83fdfb2a-8044-4ad8-b129-1c6be14b1c43-logo"  >
<g style=""  paint-order="stroke"   >
		<g transform="matrix(1 0 0 1 0 0)" id="tagline-83fdfb2a-8044-4ad8-b129-1c6be14b1c43-logo-path-0"  >
<linearGradient id="SVGID_326651" gradientUnits="userSpaceOnUse" gradientTransform="matrix(1 0 0 1 7.749999999999986 -108.5)"  x1="-7.750000000000028" y1="-27.766699999999958" x2="-7.750000000000028" y2="147.23330000000004">
<stop offset="0%" style="stop-color:rgb(172,172,172);stop-opacity: 1"/>
<stop offset="100%" style="stop-color:rgb(143,143,143);stop-opacity: 1"/>
</linearGradient>
<path style="stroke: rgb(255,255,255); stroke-width: 0; stroke-dasharray: none; stroke-linecap: butt; stroke-dashoffset: 0; stroke-linejoin: miter; stroke-miterlimit: 4; fill: url(#SVGID_326651); fill-rule: nonzero; opacity: 1;"  paint-order="stroke"  transform=" translate(-130.2, 54.25)" d="M 79.05 0 L 111.6 0 L 111.6 -108.5 L 85.25 -108.5 L 85.25 -33.63 L 40.3 -108.5 L 7.75 -108.5 L 7.75 0 L 34.1 0 L 34.1 -74.86 L 79.05 0 Z M 226.3 0 L 252.65 0 L 211.57 -108.5 L 183.68 -108.5 L 142.6 0 L 168.95 0 L 176.54 -20.15 L 218.7 -20.15 L 226.3 0 Z M 184.76 -41.85 L 197.63 -75.8 L 210.49 -41.85 L 184.76 -41.85 Z" stroke-linecap="round" />
</g>
</g>
</g>
</svg>